<?xml version="1.0" encoding="utf-8"?>
<!-- Generator: Adobe Illustrator 16.0.3, SVG Export Plug-In . SVG Version: 6.00 Build 0)  -->
<!DOCTYPE svg PUBLIC "-//W3C//DTD SVG 1.1//EN" "http://www.w3.org/Graphics/SVG/1.1/DTD/svg11.dtd">
<svg version="1.1" id="Layer_1" xmlns="http://www.w3.org/2000/svg" xmlns:xlink="http://www.w3.org/1999/xlink" x="0px" y="0px"
	 width="653.707px" height="191.197px" viewBox="0 0 653.707 191.197" enable-background="new 0 0 653.707 191.197"
	 xml:space="preserve">
<g>
	<path fill-rule="evenodd" clip-rule="evenodd" fill="#F1E0B0" d="M-32.002,0h-454.5l82.063,109.87l-76.313,81.327h90.016
		c1.152-56.634,80.951-102.339,179.22-102.339c98.271,0,178.07,45.705,179.223,102.339h0.291V0z"/>
	<path fill-rule="evenodd" clip-rule="evenodd" fill="#F8F6EB" d="M-211.516,53.251c-98.27,0-178.068,61.607-179.22,137.946h358.443
		C-33.445,114.858-113.244,53.251-211.516,53.251z"/>
	<polygon fill-rule="evenodd" clip-rule="evenodd" fill="#C3C74F" points="-486.501,0 -686,0 -686,191.197 -480.751,191.197 
		-404.439,109.87 	"/>
	<text transform="matrix(1 0 0 1 -397.3076 38.5)" fill="#F64D31" font-family="'LeagueSpartan-Bold'" font-size="34">DISCOUNT VOUCHER</text>
	<text transform="matrix(1 0 0 1 -625.7119 83.7793)"><tspan x="0" y="0" fill="#FFFFFF" font-family="'LeagueSpartan-Bold'" font-size="62.9053">20%</tspan><tspan x="2.235" y="63.645" fill="#FFFFFF" font-family="'LeagueSpartan-Bold'" font-size="60.4185">OFF</tspan></text>
	<g>
		<g>
			<g>
				<path fill="#E8AD67" d="M-216.877,109.095l1.123,4.605c0.242,0.992-0.367,1.992-1.359,2.235
					c-0.99,0.242-1.992-0.367-2.236-1.359c-0.072-0.296-0.064-0.599,0-0.876l1.125-4.605c0.09-0.373,0.465-0.602,0.838-0.51
					C-217.127,108.647-216.938,108.851-216.877,109.095z"/>
			</g>
			<g>
				<path fill="#E8AD67" d="M-194.41,109.095l1.123,4.605c0.24,0.992-0.367,1.992-1.359,2.235c-0.992,0.242-1.994-0.367-2.236-1.359
					c-0.072-0.296-0.066-0.599,0-0.876l1.123-4.605c0.092-0.373,0.467-0.602,0.84-0.51
					C-194.66,108.647-194.471,108.851-194.41,109.095z"/>
			</g>
			<g>
				<path fill="#E8AD67" d="M-170.297,109.095l1.123,4.605c0.242,0.992-0.365,1.992-1.359,2.235
					c-0.992,0.242-1.994-0.367-2.234-1.359c-0.072-0.296-0.068-0.599,0-0.876l1.121-4.605c0.092-0.373,0.467-0.602,0.84-0.51
					C-170.547,108.647-170.357,108.851-170.297,109.095z"/>
			</g>
			<g>
				<path fill="#E8AD67" d="M-147.83,109.095l1.123,4.605c0.242,0.992-0.367,1.992-1.361,2.235c-0.99,0.242-1.992-0.367-2.234-1.359
					c-0.072-0.296-0.066-0.599,0-0.876l1.123-4.605c0.092-0.373,0.467-0.602,0.84-0.51
					C-148.08,108.647-147.891,108.851-147.83,109.095z"/>
			</g>
			<g>
				<path fill="#E8AD67" d="M-124.166,109.095l1.123,4.605c0.24,0.992-0.367,1.992-1.359,2.235
					c-0.992,0.242-1.994-0.367-2.236-1.359c-0.07-0.296-0.066-0.599,0-0.876l1.125-4.605c0.09-0.373,0.465-0.602,0.836-0.51
					C-124.416,108.647-124.227,108.851-124.166,109.095z"/>
			</g>
			<g>
				<path fill="#E8AD67" d="M-101.701,109.095l1.123,4.605c0.242,0.992-0.365,1.992-1.357,2.235
					c-0.994,0.242-1.994-0.367-2.236-1.359c-0.072-0.296-0.066-0.599,0-0.876l1.125-4.605c0.088-0.373,0.465-0.602,0.836-0.51
					C-101.949,108.647-101.76,108.851-101.701,109.095z"/>
			</g>
			<g>
				<path fill="#E8AD67" d="M-136.898,96.662l1.125,4.605c0.242,0.993-0.367,1.995-1.359,2.237
					c-0.994,0.242-1.994-0.367-2.236-1.359c-0.072-0.296-0.064-0.602,0-0.878l1.123-4.605c0.092-0.372,0.467-0.6,0.84-0.509
					C-137.146,96.216-136.957,96.419-136.898,96.662z"/>
			</g>
			<g>
				<path fill="#E8AD67" d="M-114.432,96.662l1.125,4.605c0.24,0.993-0.367,1.995-1.359,2.237c-0.994,0.242-1.994-0.367-2.236-1.359
					c-0.072-0.296-0.066-0.602,0-0.878l1.123-4.605c0.092-0.372,0.467-0.6,0.84-0.509
					C-114.682,96.216-114.492,96.419-114.432,96.662z"/>
			</g>
			<g>
				<path fill="#E8AD67" d="M-181.531,96.662l1.125,4.605c0.242,0.993-0.367,1.995-1.359,2.237s-1.992-0.367-2.234-1.359
					c-0.072-0.296-0.068-0.602,0-0.878l1.123-4.605c0.088-0.372,0.465-0.6,0.836-0.509
					C-181.779,96.216-181.59,96.419-181.531,96.662z"/>
			</g>
			<g>
				<path fill="#E8AD67" d="M-204.295,96.662l1.123,4.605c0.242,0.993-0.367,1.995-1.359,2.237s-1.994-0.367-2.236-1.359
					c-0.072-0.296-0.066-0.602,0-0.878l1.123-4.605c0.092-0.372,0.467-0.6,0.84-0.509
					C-204.547,96.216-204.355,96.419-204.295,96.662z"/>
			</g>
			<g>
				<path fill="#E8AD67" d="M-169.1,85.729l1.125,4.605c0.24,0.993-0.369,1.994-1.359,2.235c-0.992,0.242-1.994-0.366-2.236-1.358
					c-0.072-0.295-0.066-0.601,0-0.877l1.123-4.605c0.092-0.372,0.467-0.6,0.84-0.509C-169.35,85.283-169.158,85.486-169.1,85.729z"
					/>
			</g>
			<g>
				<path fill="#E8AD67" d="M-150.078,85.729l1.123,4.605c0.244,0.993-0.365,1.994-1.357,2.235
					c-0.994,0.242-1.994-0.366-2.236-1.358c-0.072-0.295-0.066-0.601,0-0.877l1.123-4.605c0.09-0.372,0.467-0.6,0.838-0.509
					C-150.328,85.283-150.137,85.486-150.078,85.729z"/>
			</g>
			<g>
				<path fill="#E8AD67" d="M-128.51,85.729l1.123,4.605c0.242,0.993-0.367,1.994-1.359,2.235c-0.992,0.242-1.992-0.366-2.236-1.358
					c-0.072-0.295-0.064-0.601,0-0.877l1.125-4.605c0.09-0.372,0.465-0.6,0.838-0.509C-128.76,85.283-128.57,85.486-128.51,85.729z"
					/>
			</g>
			<g>
				<path fill="#E8AD67" d="M-191.865,85.729l1.123,4.605c0.242,0.993-0.365,1.994-1.357,2.235
					c-0.994,0.242-1.994-0.366-2.236-1.358c-0.072-0.295-0.066-0.601,0-0.877l1.123-4.605c0.09-0.372,0.467-0.6,0.838-0.509
					C-192.115,85.283-191.924,85.486-191.865,85.729z"/>
			</g>
			<g>
				<path fill="#E8AD67" d="M-159.064,96.662l1.125,4.605c0.24,0.993-0.369,1.995-1.359,2.237c-0.994,0.242-1.994-0.367-2.236-1.359
					c-0.072-0.296-0.066-0.602,0-0.878l1.123-4.605c0.09-0.372,0.467-0.6,0.838-0.509
					C-159.314,96.216-159.123,96.419-159.064,96.662z"/>
			</g>
		</g>
	</g>
	<g>
		<g>
			<g>
				<path fill-rule="evenodd" clip-rule="evenodd" fill="#F8C745" d="M-299.85,106.755l3.168-34.562
					c0.045-0.497,0.486-0.864,0.984-0.819l0.102,0.009v-7.168c0-0.5-0.406-0.906-0.906-0.906h-11.475
					c-0.5,0-0.906,0.406-0.906,0.906v25.424l3.527,17.014C-303.57,106.635-301.732,106.668-299.85,106.755z"/>
				<path fill-rule="evenodd" clip-rule="evenodd" fill="#F2AF11" d="M-295.596,71.383l-0.102-0.009
					c-0.498-0.045-0.939,0.322-0.984,0.819l-3.168,34.562c1.393,0.064,2.811,0.158,4.254,0.287c2.35,0.209,4.766,0.506,7.246,0.904
					l3.262-35.6L-295.596,71.383z"/>
				<path fill-rule="evenodd" clip-rule="evenodd" fill="#F2AF11" d="M-308.883,89.639l-3.898-18.807
					c-0.104-0.49-0.582-0.805-1.072-0.704l-10.775,2.233l7.295,35.188c2.664-0.375,5.482-0.65,8.451-0.792
					c1.154-0.056,2.328-0.092,3.527-0.104L-308.883,89.639z"/>
				<path fill-rule="evenodd" clip-rule="evenodd" fill="#F8C745" d="M-324.629,72.362l-2.195-10.589
					c-0.102-0.49-0.58-0.805-1.072-0.703l-11.236,2.329c-0.49,0.102-0.805,0.582-0.703,1.072l2.139,10.312l2.781-0.576
					c0.488-0.102,0.969,0.213,1.07,0.704l7.146,34.475c2.473-0.627,5.143-1.186,8.002-1.633c0.449-0.07,0.904-0.137,1.363-0.201
					L-324.629,72.362z"/>
				<path fill-rule="evenodd" clip-rule="evenodd" fill="#F2AF11" d="M-333.846,74.909c-0.102-0.49-0.582-0.806-1.07-0.704
					l-2.781,0.576l-3.377,0.7l7.459,35.971c1.045-0.364,2.146-0.722,3.299-1.069s2.359-0.682,3.617-1L-333.846,74.909z"/>
				<path fill-rule="evenodd" clip-rule="evenodd" fill="#F8C745" d="M-341.074,75.482l-1.15-5.556
					c-0.104-0.49-0.582-0.806-1.072-0.704l-11.236,2.33c-0.49,0.101-0.805,0.581-0.703,1.069l9.223,44.48
					c1.418-0.846,3.652-2.071,6.643-3.389c1.684-0.742,3.605-1.512,5.756-2.261L-341.074,75.482z"/>
				<path fill-rule="evenodd" clip-rule="evenodd" fill="#F8C745" d="M-272.189,67.288l-11.428-1.047
					c-0.5-0.045-0.941,0.321-0.986,0.819l-0.484,5.287l-3.262,35.6c0.566,0.09,1.135,0.185,1.707,0.286
					c2.365,0.418,4.783,0.925,7.26,1.534l6.332-36.719c0.086-0.493,0.553-0.824,1.047-0.738l0.26,0.044l0.375-4.081
					C-271.326,67.775-271.691,67.333-272.189,67.288z"/>
				<path fill-rule="evenodd" clip-rule="evenodd" fill="#F2AF11" d="M-260.697,74.258l-11.047-1.905l-0.26-0.044
					c-0.494-0.085-0.961,0.245-1.047,0.738l-6.332,36.719c1.352,0.333,2.725,0.703,4.109,1.098c0.582,0.166,1.166,0.338,1.754,0.516
					l6.631-29.298c0.111-0.489,0.596-0.794,1.084-0.684l4.617,1.045l1.23-7.138C-259.873,74.813-260.203,74.343-260.697,74.258z"/>
				<path fill-rule="evenodd" clip-rule="evenodd" fill="#F8C745" d="M-254.613,83.932l-6.574-1.488l-4.617-1.045
					c-0.488-0.11-0.973,0.195-1.084,0.684l-6.631,29.298c2.271,0.686,4.586,1.454,6.941,2.318c1.859,0.682,3.744,1.424,5.654,2.223
					l6.996-30.906C-253.818,84.527-254.125,84.042-254.613,83.932z"/>
				<path fill-rule="evenodd" clip-rule="evenodd" fill="#DFA42C" d="M-299.85,106.755c-1.883-0.087-3.721-0.12-5.506-0.102
					l3.824,18.448L-299.85,106.755z"/>
				<path fill-rule="evenodd" clip-rule="evenodd" fill="#E29E19" d="M-300.277,131.153l-0.916-4.428h-0.486l0.148-1.624
					l-3.824-18.448c-1.199,0.013-2.373,0.049-3.527,0.104c-2.969,0.142-5.787,0.417-8.451,0.792l3.016,14.545
					c0.102,0.49-0.215,0.97-0.703,1.07l-0.461,0.096l2.195,10.59c0.102,0.49,0.58,0.806,1.07,0.703l10.01-2.074l1.227-0.255
					C-300.49,132.122-300.174,131.644-300.277,131.153z"/>
				<path fill-rule="evenodd" clip-rule="evenodd" fill="#E29E19" d="M-290.225,128.407l1.875-20.461
					c-2.48-0.398-4.896-0.695-7.246-0.904c-1.443-0.129-2.861-0.223-4.254-0.287l-1.682,18.347l-0.148,1.624h0.486l0.916,4.428
					c0.104,0.49-0.213,0.969-0.703,1.071l-1.227,0.255l-0.098,1.062c-0.045,0.499,0.322,0.94,0.82,0.985l11.428,1.047
					c0.498,0.045,0.938-0.32,0.984-0.82l0.484-5.285l-0.816-0.075C-289.902,129.348-290.271,128.906-290.225,128.407z"/>
				<path fill-rule="evenodd" clip-rule="evenodd" fill="#DFA42C" d="M-314.318,122.095l-3.016-14.545
					c-0.459,0.064-0.914,0.131-1.363,0.201c-2.859,0.447-5.529,1.006-8.002,1.633l3.221,15.535l7.996-1.658l0.461-0.096
					C-314.533,123.064-314.217,122.585-314.318,122.095z"/>
				<path fill-rule="evenodd" clip-rule="evenodd" fill="#E29E19" d="M-321.342,135.231l-2.137-10.313l-3.221-15.535
					c-1.258,0.318-2.465,0.652-3.617,1s-2.254,0.705-3.299,1.069l3.895,18.795c0.102,0.489-0.215,0.968-0.703,1.07l-5.08,1.054
					l1.152,5.556c0.102,0.489,0.582,0.806,1.07,0.704l11.238-2.33C-321.553,136.199-321.238,135.721-321.342,135.231z"/>
				<path fill-rule="evenodd" clip-rule="evenodd" fill="#DFA42C" d="M-329.721,130.248l-3.895-18.795
					c-2.15,0.749-4.072,1.519-5.756,2.261c-2.99,1.317-5.225,2.543-6.643,3.389l3.283,15.842c0.102,0.49,0.58,0.807,1.07,0.704
					l6.156-1.276l5.08-1.054C-329.936,131.216-329.619,130.737-329.721,130.248z"/>
				<path fill-rule="evenodd" clip-rule="evenodd" fill="#DFA42C" d="M-286.643,108.232c-0.572-0.102-1.141-0.196-1.707-0.286
					l-1.875,20.461c-0.047,0.499,0.322,0.94,0.82,0.985l0.816,0.075l5.717,0.523l3.488-20.225
					C-281.859,109.157-284.277,108.65-286.643,108.232z"/>
				<path fill-rule="evenodd" clip-rule="evenodd" fill="#E29E19" d="M-275.273,110.864c-1.385-0.395-2.758-0.765-4.109-1.098
					l-3.488,20.225l-0.65,3.766c-0.084,0.492,0.246,0.961,0.74,1.046l3.811,0.657l1.141-5.036l1.285-5.683l3.025-13.361
					C-274.107,111.202-274.691,111.03-275.273,110.864z"/>
				<path fill-rule="evenodd" clip-rule="evenodd" fill="#DFA42C" d="M-266.578,113.698c-2.355-0.864-4.67-1.633-6.941-2.318
					l-3.025,13.361l-1.285,5.683l-1.141,5.036l-1.518,6.706c-0.111,0.487,0.195,0.972,0.684,1.084l11.191,2.532
					c0.488,0.111,0.973-0.195,1.082-0.682l6.607-29.18C-262.834,115.122-264.719,114.38-266.578,113.698z"/>
			</g>
			<path fill-rule="evenodd" clip-rule="evenodd" fill="#BB4A26" d="M-261.229,119.349c-50.182-21.341-84.734,0.515-84.734,0.515
				l15.23,68.212C-274.215,183.985-262.367,125.784-261.229,119.349z"/>
			<path fill-rule="evenodd" clip-rule="evenodd" fill="#963216" d="M-276.146,192.12c0,0,16.135-70.197,15.693-72.444
				c-0.26-0.112-0.516-0.217-0.775-0.327c-1.139,6.436-12.986,64.637-69.504,68.727l0.902,4.045H-276.146z"/>
			<path fill-rule="evenodd" clip-rule="evenodd" fill="#E16F50" d="M-319.629,114.761c0,0-15.125,1.875-22.375,7.625
				c0.75-0.5,14.375,61,14.375,61l-10.5-59.375C-338.129,124.011-339.504,120.761-319.629,114.761z"/>
		</g>
		<polygon fill-rule="evenodd" clip-rule="evenodd" fill="#F6D78D" points="-345.213,71.678 -353.795,73.345 -345.379,110.345 
			-352.213,74.511 		"/>
		<polygon fill-rule="evenodd" clip-rule="evenodd" fill="#F6D78D" points="-298.096,65.796 -306.803,65.014 -307.879,90.845 
			-305.607,66.574 		"/>
		<polygon fill-rule="evenodd" clip-rule="evenodd" fill="#F6D78D" points="-274.678,69.129 -283.387,68.347 -284.461,94.178 
			-282.189,69.907 		"/>
		<polygon fill-rule="evenodd" clip-rule="evenodd" fill="#F6D78D" points="-256.805,85.896 -265.287,83.779 -270.336,109.135 
			-264.346,85.506 		"/>
		<polygon fill-rule="evenodd" clip-rule="evenodd" fill="#F4BB41" points="-262.971,75.979 -271.453,73.863 -276.502,99.218 
			-270.512,75.589 		"/>
		<polygon fill-rule="evenodd" clip-rule="evenodd" fill="#F4BB41" points="-286.152,74.146 -294.807,72.902 -297.252,98.64 
			-293.695,74.524 		"/>
		<polygon fill-rule="evenodd" clip-rule="evenodd" fill="#F4BB41" points="-313.904,72.801 -322.459,74.607 -315.91,99.618 
			-320.857,75.749 		"/>
	</g>
	<g>
		<g>
			<path fill="#C67E26" d="M-94.129,167.089h-142.508c-3.967,0-7.322,2.592-8.477,6.174h159.461
				C-86.807,169.681-90.162,167.089-94.129,167.089z"/>
			<path fill="#E0942D" d="M-245.113,173.263c-0.277,0.861-0.432,1.779-0.432,2.732v0.928c0,4.919,3.986,8.906,8.908,8.906h142.508
				c4.92,0,8.908-3.987,8.908-8.906v-0.928c0-0.953-0.154-1.871-0.432-2.732H-245.113z"/>
		</g>
		<g>
			<path fill="#7A5C54" d="M-182.285,165.785c-3.895-3.897-4.174-8.629-15.586-2.505s-17.258,8.628-23.381-4.732
				c-6.125-13.359-12.248-5.566-12.248-5.566s-3.832,6.914-9.99,5.865c0.295,6.765,4.15,12.121,8.879,12.121h57.625
				C-179.209,169.528-180.77,167.301-182.285,165.785z"/>
			<path fill="#7A5C54" d="M-231.045,148.096c-0.164,0.163,89.666,2.188,140.02-0.382c-1.568-3.689-4.369-6.156-7.572-6.156
				h-136.014c-3.088,0-5.809,2.285-7.406,5.756C-239.559,148.14-236.041,148.515-231.045,148.096z"/>
			<path fill="#624944" d="M-89.689,154.509c0-2.495-0.494-4.818-1.336-6.795c-50.354,2.569-140.184,0.545-140.02,0.382
				c-4.996,0.419-8.514,0.044-10.973-0.782c-0.947,2.059-1.502,4.532-1.502,7.195v3.508c0,0.281,0.018,0.555,0.029,0.83
				c6.158,1.049,9.99-5.865,9.99-5.865s6.123-7.793,12.248,5.566c6.123,13.36,11.969,10.856,23.381,4.732s11.691-1.393,15.586,2.505
				c1.516,1.516,3.076,3.743,5.299,5.183h10.314c2.15-0.994,4.621-2.566,7.49-4.904c15.029-12.248,18.092-4.546,20.875-1.206
				s7.57,9.29,23.658-5.01c10.439-9.278,12.34,5.752,15.959,6.865c1.051,0.323,3.467,0.819,6.172,0.751
				c1.736-2.363,2.828-5.717,2.828-9.447V154.509z"/>
		</g>
		<path fill="#C3C74F" d="M-82.918,143.412c-0.08-0.271-0.15-0.515-0.223-0.759c-1.168,1.299-2.818,1.614-4.156,1.691
			c-49.5,2.875-143.916,0.75-143.748,0.584c-14.715,1.236-16.633-4.414-16.32-8.232c-4.844,1.537-11.055,5.259-3.947,13.675
			c10.576,12.526,17.141,1.286,17.141,1.286s6.795-9.636,12.92,3.725c6.123,13.359,11.969,10.855,23.381,4.731
			s11.691-1.392,15.586,2.505c3.898,3.896,8.072,12.525,23.104,0.279c15.029-12.248,18.092-4.547,20.875-1.207
			s7.57,9.291,23.658-5.01c10.439-9.279,12.34,5.752,15.959,6.865C-95.109,164.649-75.68,167.813-82.918,143.412z"/>
		<path fill="#AFAF3E" d="M-231.045,144.929c-0.168,0.166,94.248,2.291,143.748-0.584c1.338-0.077,2.988-0.393,4.156-1.691
			c-1.461-5.021-1.1-4.594-3.488-5.921l-156.334-1.021c0,0-2.039,0.233-4.402,0.984
			C-247.678,140.515-245.76,146.165-231.045,144.929z"/>
		<path fill="#7A5C54" d="M-98.689,166.713c-3.619-1.113-5.52-16.144-15.959-6.865c-16.088,14.3-20.875,8.35-23.658,5.01
			s-5.846-11.042-20.875,1.206c-2.869,2.338-5.34,3.91-7.49,4.904h68.074c2.354,0,4.488-1.336,6.08-3.504
			C-95.223,167.532-97.639,167.036-98.689,166.713z"/>
		<g>
			<path fill="#BB4A26" d="M-244.145,133.429c-0.313,0.729-0.488,1.532-0.488,2.376c0,3.33,2.699,6.031,6.031,6.031h148.076
				c3.332,0,6.031-2.701,6.031-6.031c0-0.844-0.176-1.646-0.488-2.376H-244.145z"/>
			<path fill="#99381E" d="M-90.525,129.774h-148.076c-2.488,0-4.621,1.506-5.543,3.654h159.162
				C-85.904,131.28-88.039,129.774-90.525,129.774z"/>
		</g>
		<g>
			<path fill="#F1B73B" d="M-216.764,130.919c0,0,4.768,0.629,11.229,2.01h60.166c5.162-1.955,10.68-3.713,16.197-4.964
				C-132.668,125.841-193.713,125.365-216.764,130.919z"/>
			<path fill="#F8C745" d="M-172.643,147.44c-0.088-1.27,12.047-8.748,27.273-14.512h-60.166
				C-194.402,135.308-178.229,139.923-172.643,147.44z"/>
			<path fill="#F8C745" d="M-121.402,132.929c7.896,4.283,19.449,12.039,18.479,20.359c0.619-0.879,12.787-8.701,13.152-20.359
				H-121.402z"/>
			<path fill="#F1B73B" d="M-89.971,129.677c-0.23,0.125-38.514-0.207-38.514-0.207s3.07,1.283,7.082,3.459h31.631
				C-89.738,131.874-89.793,130.792-89.971,129.677z"/>
			<path fill="#F8C745" d="M-233.973,145.241c1.711-1.066,0.271-6.959,12.354-12.313h-18.395
				C-240.367,135.953-239.773,140.854-233.973,145.241z"/>
			<path fill="#F1B73B" d="M-239.275,130.026c0,0-0.531,1.129-0.738,2.902h18.395c1.313-0.582,2.777-1.156,4.432-1.719
				C-216.781,130.376-239.275,130.026-239.275,130.026z"/>
		</g>
		<path fill="#E0942D" d="M-83.195,129.774c0-0.497,0.111-0.971,0.035-1.462c0.076-0.893-0.035-1.811-0.035-2.713
			c0-27.671-36.014-50.102-80.439-50.102c-44.428,0-80.441,22.431-80.441,50.102c0,0.902-0.074,1.682,0,2.573
			c-0.074,0.49,0,1.104,0,1.602c0,0.467,0.037,0.93,0.105,1.393h160.672C-83.232,130.704-83.195,130.241-83.195,129.774z"/>
		<path fill="#F5BA72" d="M-187.213,81.095c0,0-49,10.5-51.334,45.333C-238.713,126.595-232.545,99.929-187.213,81.095z"/>
		<g>
			<g>
				<g>
					<path fill="#E8AD67" d="M-222.506,113.417l1.123,4.605c0.242,0.992-0.367,1.992-1.359,2.235
						c-0.99,0.242-1.992-0.367-2.236-1.359c-0.072-0.296-0.064-0.599,0-0.876l1.125-4.605c0.09-0.373,0.465-0.602,0.838-0.51
						C-222.756,112.97-222.566,113.173-222.506,113.417z"/>
				</g>
				<g>
					<path fill="#E8AD67" d="M-200.039,113.417l1.123,4.605c0.24,0.992-0.367,1.992-1.359,2.235
						c-0.992,0.242-1.994-0.367-2.236-1.359c-0.072-0.296-0.066-0.599,0-0.876l1.123-4.605c0.092-0.373,0.467-0.602,0.84-0.51
						C-200.289,112.97-200.1,113.173-200.039,113.417z"/>
				</g>
				<g>
					<path fill="#E8AD67" d="M-175.926,113.417l1.123,4.605c0.242,0.992-0.365,1.992-1.359,2.235
						c-0.992,0.242-1.994-0.367-2.234-1.359c-0.072-0.296-0.068-0.599,0-0.876l1.121-4.605c0.092-0.373,0.467-0.602,0.84-0.51
						C-176.176,112.97-175.986,113.173-175.926,113.417z"/>
				</g>
				<g>
					<path fill="#E8AD67" d="M-153.459,113.417l1.123,4.605c0.242,0.992-0.367,1.992-1.361,2.235
						c-0.99,0.242-1.992-0.367-2.234-1.359c-0.072-0.296-0.066-0.599,0-0.876l1.123-4.605c0.092-0.373,0.467-0.602,0.84-0.51
						C-153.709,112.97-153.52,113.173-153.459,113.417z"/>
				</g>
				<g>
					<path fill="#E8AD67" d="M-129.795,113.417l1.123,4.605c0.24,0.992-0.367,1.992-1.359,2.235
						c-0.992,0.242-1.994-0.367-2.236-1.359c-0.07-0.296-0.066-0.599,0-0.876l1.125-4.605c0.09-0.373,0.465-0.602,0.836-0.51
						C-130.045,112.97-129.855,113.173-129.795,113.417z"/>
				</g>
				<g>
					<path fill="#E8AD67" d="M-107.33,113.417l1.123,4.605c0.242,0.992-0.365,1.992-1.357,2.235
						c-0.994,0.242-1.994-0.367-2.236-1.359c-0.072-0.296-0.066-0.599,0-0.876l1.125-4.605c0.088-0.373,0.465-0.602,0.836-0.51
						C-107.578,112.97-107.389,113.173-107.33,113.417z"/>
				</g>
				<g>
					<path fill="#E8AD67" d="M-142.527,100.984l1.125,4.605c0.242,0.993-0.367,1.995-1.359,2.237
						c-0.994,0.242-1.994-0.367-2.236-1.359c-0.072-0.296-0.064-0.602,0-0.878l1.123-4.605c0.092-0.372,0.467-0.6,0.84-0.509
						C-142.775,100.538-142.586,100.741-142.527,100.984z"/>
				</g>
				<g>
					<path fill="#E8AD67" d="M-120.061,100.984l1.125,4.605c0.24,0.993-0.367,1.995-1.359,2.237
						c-0.994,0.242-1.994-0.367-2.236-1.359c-0.072-0.296-0.066-0.602,0-0.878l1.123-4.605c0.092-0.372,0.467-0.6,0.84-0.509
						C-120.311,100.538-120.121,100.741-120.061,100.984z"/>
				</g>
				<g>
					<path fill="#E8AD67" d="M-187.16,100.984l1.125,4.605c0.242,0.993-0.367,1.995-1.359,2.237s-1.992-0.367-2.234-1.359
						c-0.072-0.296-0.068-0.602,0-0.878l1.123-4.605c0.088-0.372,0.465-0.6,0.836-0.509
						C-187.408,100.538-187.219,100.741-187.16,100.984z"/>
				</g>
				<g>
					<path fill="#E8AD67" d="M-209.924,100.984l1.123,4.605c0.242,0.993-0.367,1.995-1.359,2.237s-1.994-0.367-2.236-1.359
						c-0.072-0.296-0.066-0.602,0-0.878l1.123-4.605c0.092-0.372,0.467-0.6,0.84-0.509
						C-210.176,100.538-209.984,100.741-209.924,100.984z"/>
				</g>
				<g>
					<path fill="#E8AD67" d="M-174.729,90.051l1.125,4.605c0.24,0.993-0.369,1.994-1.359,2.235
						c-0.992,0.242-1.994-0.365-2.236-1.357c-0.072-0.295-0.066-0.601,0-0.877l1.123-4.605c0.092-0.372,0.467-0.6,0.84-0.509
						C-174.979,89.605-174.787,89.808-174.729,90.051z"/>
				</g>
				<g>
					<path fill="#E8AD67" d="M-155.707,90.051l1.123,4.605c0.244,0.993-0.365,1.994-1.357,2.235
						c-0.994,0.242-1.994-0.365-2.236-1.357c-0.072-0.295-0.066-0.601,0-0.877l1.123-4.605c0.09-0.372,0.467-0.6,0.838-0.509
						C-155.957,89.605-155.766,89.808-155.707,90.051z"/>
				</g>
				<g>
					<path fill="#E8AD67" d="M-134.139,90.051l1.123,4.605c0.242,0.993-0.367,1.994-1.359,2.235
						c-0.992,0.242-1.992-0.365-2.236-1.357c-0.072-0.295-0.064-0.601,0-0.877l1.125-4.605c0.09-0.372,0.465-0.6,0.838-0.509
						C-134.389,89.605-134.199,89.808-134.139,90.051z"/>
				</g>
				<g>
					<path fill="#E8AD67" d="M-197.494,90.051l1.123,4.605c0.242,0.993-0.365,1.994-1.357,2.235
						c-0.994,0.242-1.994-0.365-2.236-1.357c-0.072-0.295-0.066-0.601,0-0.877l1.123-4.605c0.09-0.372,0.467-0.6,0.838-0.509
						C-197.744,89.605-197.553,89.808-197.494,90.051z"/>
				</g>
				<g>
					<path fill="#E8AD67" d="M-164.693,100.984l1.125,4.605c0.24,0.993-0.369,1.995-1.359,2.237
						c-0.994,0.242-1.994-0.367-2.236-1.359c-0.072-0.296-0.066-0.602,0-0.878l1.123-4.605c0.09-0.372,0.467-0.6,0.838-0.509
						C-164.943,100.538-164.752,100.741-164.693,100.984z"/>
				</g>
			</g>
		</g>
	</g>
</g>
<g>
	<path fill-rule="evenodd" clip-rule="evenodd" fill="#F1E0B0" d="M653.998,0h-454.5l82.063,109.87l-76.313,81.327h90.016
		c1.152-56.634,80.951-102.339,179.221-102.339c98.271,0,178.07,45.705,179.223,102.339h0.291V0z"/>
	<path fill-rule="evenodd" clip-rule="evenodd" fill="#F8F6EB" d="M474.484,53.251c-98.27,0-178.068,61.607-179.221,137.946h358.443
		C652.555,114.858,572.756,53.251,474.484,53.251z"/>
	<polygon fill-rule="evenodd" clip-rule="evenodd" fill="#C52A91" points="199.498,0 0,0 0,191.197 205.248,191.197 281.561,109.87 
			"/>
	<text transform="matrix(1 0 0 1 312.1924 38.5)" fill="#F64D31" font-family="'LeagueSpartan-Bold'" font-size="34">FREE DELIVERING</text>
	<text transform="matrix(1 0 0 1 39.9668 77.9297)"><tspan x="0" y="0" fill="#FFFFFF" font-family="'LeagueSpartan-Bold'" font-size="52">UNTIL</tspan><tspan x="8.633" y="63.645" fill="#FFFFFF" font-family="'LeagueSpartan-Bold'" font-size="52">8 July </tspan></text>
	<g>
		<g>
			<g>
				<path fill="#E8AD67" d="M469.123,109.095l1.123,4.605c0.242,0.992-0.367,1.992-1.359,2.235c-0.99,0.242-1.992-0.367-2.236-1.359
					c-0.072-0.296-0.064-0.599,0-0.876l1.125-4.605c0.09-0.373,0.465-0.602,0.838-0.51
					C468.873,108.647,469.063,108.851,469.123,109.095z"/>
			</g>
			<g>
				<path fill="#E8AD67" d="M491.59,109.095l1.123,4.605c0.24,0.992-0.367,1.992-1.359,2.235c-0.992,0.242-1.994-0.367-2.236-1.359
					c-0.072-0.296-0.066-0.599,0-0.876l1.123-4.605c0.092-0.373,0.467-0.602,0.84-0.51
					C491.34,108.647,491.529,108.851,491.59,109.095z"/>
			</g>
			<g>
				<path fill="#E8AD67" d="M515.703,109.095l1.123,4.605c0.242,0.992-0.365,1.992-1.359,2.235
					c-0.992,0.242-1.994-0.367-2.234-1.359c-0.072-0.296-0.068-0.599,0-0.876l1.121-4.605c0.092-0.373,0.467-0.602,0.84-0.51
					C515.453,108.647,515.643,108.851,515.703,109.095z"/>
			</g>
			<g>
				<path fill="#E8AD67" d="M538.17,109.095l1.123,4.605c0.242,0.992-0.367,1.992-1.361,2.235c-0.99,0.242-1.992-0.367-2.234-1.359
					c-0.072-0.296-0.066-0.599,0-0.876l1.123-4.605c0.092-0.373,0.467-0.602,0.84-0.51
					C537.92,108.647,538.109,108.851,538.17,109.095z"/>
			</g>
			<g>
				<path fill="#E8AD67" d="M561.834,109.095l1.123,4.605c0.24,0.992-0.367,1.992-1.359,2.235c-0.992,0.242-1.994-0.367-2.236-1.359
					c-0.07-0.296-0.066-0.599,0-0.876l1.125-4.605c0.09-0.373,0.465-0.602,0.836-0.51
					C561.584,108.647,561.773,108.851,561.834,109.095z"/>
			</g>
			<g>
				<path fill="#E8AD67" d="M584.299,109.095l1.123,4.605c0.242,0.992-0.365,1.992-1.357,2.235
					c-0.994,0.242-1.994-0.367-2.236-1.359c-0.072-0.296-0.066-0.599,0-0.876l1.125-4.605c0.088-0.373,0.465-0.602,0.836-0.51
					C584.051,108.647,584.24,108.851,584.299,109.095z"/>
			</g>
			<g>
				<path fill="#E8AD67" d="M549.102,96.662l1.125,4.605c0.242,0.993-0.367,1.995-1.359,2.237c-0.994,0.242-1.994-0.367-2.236-1.359
					c-0.072-0.296-0.064-0.602,0-0.878l1.123-4.605c0.092-0.372,0.467-0.6,0.84-0.509C548.854,96.216,549.043,96.419,549.102,96.662
					z"/>
			</g>
			<g>
				<path fill="#E8AD67" d="M571.568,96.662l1.125,4.605c0.24,0.993-0.367,1.995-1.359,2.237c-0.994,0.242-1.994-0.367-2.236-1.359
					c-0.072-0.296-0.066-0.602,0-0.878l1.123-4.605c0.092-0.372,0.467-0.6,0.84-0.509C571.318,96.216,571.508,96.419,571.568,96.662
					z"/>
			</g>
			<g>
				<path fill="#E8AD67" d="M504.469,96.662l1.125,4.605c0.242,0.993-0.367,1.995-1.359,2.237s-1.992-0.367-2.234-1.359
					c-0.072-0.296-0.068-0.602,0-0.878l1.123-4.605c0.088-0.372,0.465-0.6,0.836-0.509C504.221,96.216,504.41,96.419,504.469,96.662
					z"/>
			</g>
			<g>
				<path fill="#E8AD67" d="M481.705,96.662l1.123,4.605c0.242,0.993-0.367,1.995-1.359,2.237s-1.994-0.367-2.236-1.359
					c-0.072-0.296-0.066-0.602,0-0.878l1.123-4.605c0.092-0.372,0.467-0.6,0.84-0.509C481.453,96.216,481.645,96.419,481.705,96.662
					z"/>
			</g>
			<g>
				<path fill="#E8AD67" d="M516.9,85.729l1.125,4.605c0.24,0.993-0.369,1.994-1.359,2.235c-0.992,0.242-1.994-0.366-2.236-1.358
					c-0.072-0.295-0.066-0.601,0-0.877l1.123-4.605c0.092-0.372,0.467-0.6,0.84-0.509C516.65,85.283,516.842,85.486,516.9,85.729z"
					/>
			</g>
			<g>
				<path fill="#E8AD67" d="M535.922,85.729l1.123,4.605c0.244,0.993-0.365,1.994-1.357,2.235c-0.994,0.242-1.994-0.366-2.236-1.358
					c-0.072-0.295-0.066-0.601,0-0.877l1.123-4.605c0.09-0.372,0.467-0.6,0.838-0.509C535.672,85.283,535.863,85.486,535.922,85.729
					z"/>
			</g>
			<g>
				<path fill="#E8AD67" d="M557.49,85.729l1.123,4.605c0.242,0.993-0.367,1.994-1.359,2.235c-0.992,0.242-1.992-0.366-2.236-1.358
					c-0.072-0.295-0.064-0.601,0-0.877l1.125-4.605c0.09-0.372,0.465-0.6,0.838-0.509C557.24,85.283,557.43,85.486,557.49,85.729z"
					/>
			</g>
			<g>
				<path fill="#E8AD67" d="M494.135,85.729l1.123,4.605c0.242,0.993-0.365,1.994-1.357,2.235c-0.994,0.242-1.994-0.366-2.236-1.358
					c-0.072-0.295-0.066-0.601,0-0.877l1.123-4.605c0.09-0.372,0.467-0.6,0.838-0.509C493.885,85.283,494.076,85.486,494.135,85.729
					z"/>
			</g>
			<g>
				<path fill="#E8AD67" d="M526.936,96.662l1.125,4.605c0.24,0.993-0.369,1.995-1.359,2.237c-0.994,0.242-1.994-0.367-2.236-1.359
					c-0.072-0.296-0.066-0.602,0-0.878l1.123-4.605c0.09-0.372,0.467-0.6,0.838-0.509C526.686,96.216,526.877,96.419,526.936,96.662
					z"/>
			</g>
		</g>
	</g>
	<g>
		<g>
			<g>
				<path fill-rule="evenodd" clip-rule="evenodd" fill="#F8C745" d="M386.15,106.755l3.168-34.562
					c0.045-0.497,0.486-0.864,0.984-0.819l0.102,0.009v-7.168c0-0.5-0.406-0.906-0.906-0.906h-11.475
					c-0.5,0-0.906,0.406-0.906,0.906v25.424l3.527,17.014C382.43,106.635,384.268,106.668,386.15,106.755z"/>
				<path fill-rule="evenodd" clip-rule="evenodd" fill="#F2AF11" d="M390.404,71.383l-0.102-0.009
					c-0.498-0.045-0.939,0.322-0.984,0.819l-3.168,34.562c1.393,0.064,2.811,0.158,4.254,0.287c2.35,0.209,4.766,0.506,7.246,0.904
					l3.262-35.6L390.404,71.383z"/>
				<path fill-rule="evenodd" clip-rule="evenodd" fill="#F2AF11" d="M377.117,89.639l-3.898-18.807
					c-0.104-0.49-0.582-0.805-1.072-0.704l-10.775,2.233l7.295,35.188c2.664-0.375,5.482-0.65,8.451-0.792
					c1.154-0.056,2.328-0.092,3.527-0.104L377.117,89.639z"/>
				<path fill-rule="evenodd" clip-rule="evenodd" fill="#F8C745" d="M361.371,72.362l-2.195-10.589
					c-0.102-0.49-0.58-0.805-1.072-0.703l-11.236,2.329c-0.49,0.102-0.805,0.582-0.703,1.072l2.139,10.312l2.781-0.576
					c0.488-0.102,0.969,0.213,1.07,0.704l7.146,34.475c2.473-0.627,5.143-1.186,8.002-1.633c0.449-0.07,0.904-0.137,1.363-0.201
					L361.371,72.362z"/>
				<path fill-rule="evenodd" clip-rule="evenodd" fill="#F2AF11" d="M352.154,74.909c-0.102-0.49-0.582-0.806-1.07-0.704
					l-2.781,0.576l-3.377,0.7l7.459,35.971c1.045-0.364,2.146-0.722,3.299-1.069s2.359-0.682,3.617-1L352.154,74.909z"/>
				<path fill-rule="evenodd" clip-rule="evenodd" fill="#F8C745" d="M344.926,75.482l-1.15-5.556
					c-0.104-0.49-0.582-0.806-1.072-0.704l-11.236,2.33c-0.49,0.101-0.805,0.581-0.703,1.069l9.223,44.48
					c1.418-0.846,3.652-2.071,6.643-3.389c1.684-0.742,3.605-1.512,5.756-2.261L344.926,75.482z"/>
				<path fill-rule="evenodd" clip-rule="evenodd" fill="#F8C745" d="M413.811,67.288l-11.428-1.047
					c-0.5-0.045-0.941,0.321-0.986,0.819l-0.484,5.287l-3.262,35.6c0.566,0.09,1.135,0.185,1.707,0.286
					c2.365,0.418,4.783,0.925,7.26,1.534l6.332-36.719c0.086-0.493,0.553-0.824,1.047-0.738l0.26,0.044l0.375-4.081
					C414.674,67.775,414.309,67.333,413.811,67.288z"/>
				<path fill-rule="evenodd" clip-rule="evenodd" fill="#F2AF11" d="M425.303,74.258l-11.047-1.905l-0.26-0.044
					c-0.494-0.085-0.961,0.245-1.047,0.738l-6.332,36.719c1.352,0.333,2.725,0.703,4.109,1.098c0.582,0.166,1.166,0.338,1.754,0.516
					l6.631-29.298c0.111-0.489,0.596-0.794,1.084-0.684l4.617,1.045l1.23-7.138C426.127,74.813,425.797,74.343,425.303,74.258z"/>
				<path fill-rule="evenodd" clip-rule="evenodd" fill="#F8C745" d="M431.387,83.932l-6.574-1.488l-4.617-1.045
					c-0.488-0.11-0.973,0.195-1.084,0.684l-6.631,29.298c2.271,0.686,4.586,1.454,6.941,2.318c1.859,0.682,3.744,1.424,5.654,2.223
					l6.996-30.906C432.182,84.527,431.875,84.042,431.387,83.932z"/>
				<path fill-rule="evenodd" clip-rule="evenodd" fill="#DFA42C" d="M386.15,106.755c-1.883-0.087-3.721-0.12-5.506-0.102
					l3.824,18.448L386.15,106.755z"/>
				<path fill-rule="evenodd" clip-rule="evenodd" fill="#E29E19" d="M385.723,131.153l-0.916-4.428h-0.486l0.148-1.624
					l-3.824-18.448c-1.199,0.013-2.373,0.049-3.527,0.104c-2.969,0.142-5.787,0.417-8.451,0.792l3.016,14.545
					c0.102,0.49-0.215,0.97-0.703,1.07l-0.461,0.096l2.195,10.59c0.102,0.49,0.58,0.806,1.07,0.703l10.01-2.074l1.227-0.255
					C385.51,132.122,385.826,131.644,385.723,131.153z"/>
				<path fill-rule="evenodd" clip-rule="evenodd" fill="#E29E19" d="M395.775,128.407l1.875-20.461
					c-2.48-0.398-4.896-0.695-7.246-0.904c-1.443-0.129-2.861-0.223-4.254-0.287l-1.682,18.347l-0.148,1.624h0.486l0.916,4.428
					c0.104,0.49-0.213,0.969-0.703,1.071l-1.227,0.255l-0.098,1.062c-0.045,0.499,0.322,0.94,0.82,0.985l11.428,1.047
					c0.498,0.045,0.938-0.32,0.984-0.82l0.484-5.285l-0.816-0.075C396.098,129.348,395.729,128.906,395.775,128.407z"/>
				<path fill-rule="evenodd" clip-rule="evenodd" fill="#DFA42C" d="M371.682,122.095l-3.016-14.545
					c-0.459,0.064-0.914,0.131-1.363,0.201c-2.859,0.447-5.529,1.006-8.002,1.633l3.221,15.535l7.996-1.658l0.461-0.096
					C371.467,123.064,371.783,122.585,371.682,122.095z"/>
				<path fill-rule="evenodd" clip-rule="evenodd" fill="#E29E19" d="M364.658,135.231l-2.137-10.313l-3.221-15.535
					c-1.258,0.318-2.465,0.652-3.617,1s-2.254,0.705-3.299,1.069l3.895,18.795c0.102,0.489-0.215,0.968-0.703,1.07l-5.08,1.054
					l1.152,5.556c0.102,0.489,0.582,0.806,1.07,0.704l11.238-2.33C364.447,136.199,364.762,135.721,364.658,135.231z"/>
				<path fill-rule="evenodd" clip-rule="evenodd" fill="#DFA42C" d="M356.279,130.248l-3.895-18.795
					c-2.15,0.749-4.072,1.519-5.756,2.261c-2.99,1.317-5.225,2.543-6.643,3.389l3.283,15.842c0.102,0.49,0.58,0.807,1.07,0.704
					l6.156-1.276l5.08-1.054C356.064,131.216,356.381,130.737,356.279,130.248z"/>
				<path fill-rule="evenodd" clip-rule="evenodd" fill="#DFA42C" d="M399.357,108.232c-0.572-0.102-1.141-0.196-1.707-0.286
					l-1.875,20.461c-0.047,0.499,0.322,0.94,0.82,0.985l0.816,0.075l5.717,0.523l3.488-20.225
					C404.141,109.157,401.723,108.65,399.357,108.232z"/>
				<path fill-rule="evenodd" clip-rule="evenodd" fill="#E29E19" d="M410.727,110.864c-1.385-0.395-2.758-0.765-4.109-1.098
					l-3.488,20.225l-0.65,3.766c-0.084,0.492,0.246,0.961,0.74,1.046l3.811,0.657l1.141-5.036l1.285-5.683l3.025-13.361
					C411.893,111.202,411.309,111.03,410.727,110.864z"/>
				<path fill-rule="evenodd" clip-rule="evenodd" fill="#DFA42C" d="M419.422,113.698c-2.355-0.864-4.67-1.633-6.941-2.318
					l-3.025,13.361l-1.285,5.683l-1.141,5.036l-1.518,6.706c-0.111,0.487,0.195,0.972,0.684,1.084l11.191,2.532
					c0.488,0.111,0.973-0.195,1.082-0.682l6.607-29.18C423.166,115.122,421.281,114.38,419.422,113.698z"/>
			</g>
			<path fill-rule="evenodd" clip-rule="evenodd" fill="#BB4A26" d="M424.771,119.349c-50.182-21.341-84.734,0.515-84.734,0.515
				l15.23,68.212C411.785,183.985,423.633,125.784,424.771,119.349z"/>
			<path fill-rule="evenodd" clip-rule="evenodd" fill="#963216" d="M409.854,192.12c0,0,16.135-70.197,15.693-72.444
				c-0.26-0.112-0.516-0.217-0.775-0.327c-1.139,6.436-12.986,64.637-69.504,68.727l0.902,4.045H409.854z"/>
			<path fill-rule="evenodd" clip-rule="evenodd" fill="#E16F50" d="M366.371,114.761c0,0-15.125,1.875-22.375,7.625
				c0.75-0.5,14.375,61,14.375,61l-10.5-59.375C347.871,124.011,346.496,120.761,366.371,114.761z"/>
		</g>
		<polygon fill-rule="evenodd" clip-rule="evenodd" fill="#F6D78D" points="340.787,71.678 332.205,73.345 340.621,110.345 
			333.787,74.511 		"/>
		<polygon fill-rule="evenodd" clip-rule="evenodd" fill="#F6D78D" points="387.904,65.796 379.197,65.014 378.121,90.845 
			380.393,66.574 		"/>
		<polygon fill-rule="evenodd" clip-rule="evenodd" fill="#F6D78D" points="411.322,69.129 402.613,68.347 401.539,94.178 
			403.811,69.907 		"/>
		<polygon fill-rule="evenodd" clip-rule="evenodd" fill="#F6D78D" points="429.195,85.896 420.713,83.779 415.664,109.135 
			421.654,85.506 		"/>
		<polygon fill-rule="evenodd" clip-rule="evenodd" fill="#F4BB41" points="423.029,75.979 414.547,73.863 409.498,99.218 
			415.488,75.589 		"/>
		<polygon fill-rule="evenodd" clip-rule="evenodd" fill="#F4BB41" points="399.848,74.146 391.193,72.902 388.748,98.64 
			392.305,74.524 		"/>
		<polygon fill-rule="evenodd" clip-rule="evenodd" fill="#F4BB41" points="372.096,72.801 363.541,74.607 370.09,99.618 
			365.143,75.749 		"/>
	</g>
	<g>
		<g>
			<path fill="#C67E26" d="M591.871,167.089H449.363c-3.967,0-7.322,2.592-8.477,6.174h159.461
				C599.193,169.681,595.838,167.089,591.871,167.089z"/>
			<path fill="#E0942D" d="M440.887,173.263c-0.277,0.861-0.432,1.779-0.432,2.732v0.928c0,4.919,3.986,8.906,8.908,8.906h142.508
				c4.92,0,8.908-3.987,8.908-8.906v-0.928c0-0.953-0.154-1.871-0.432-2.732H440.887z"/>
		</g>
		<g>
			<path fill="#7A5C54" d="M503.715,165.785c-3.895-3.897-4.174-8.629-15.586-2.505s-17.258,8.628-23.381-4.732
				c-6.125-13.359-12.248-5.566-12.248-5.566s-3.832,6.914-9.99,5.865c0.295,6.765,4.15,12.121,8.879,12.121h57.625
				C506.791,169.528,505.23,167.301,503.715,165.785z"/>
			<path fill="#7A5C54" d="M454.955,148.096c-0.164,0.163,89.666,2.188,140.02-0.382c-1.568-3.689-4.369-6.156-7.572-6.156H451.389
				c-3.088,0-5.809,2.285-7.406,5.756C446.441,148.14,449.959,148.515,454.955,148.096z"/>
			<path fill="#624944" d="M596.311,154.509c0-2.495-0.494-4.818-1.336-6.795c-50.354,2.569-140.184,0.545-140.02,0.382
				c-4.996,0.419-8.514,0.044-10.973-0.782c-0.947,2.059-1.502,4.532-1.502,7.195v3.508c0,0.281,0.018,0.555,0.029,0.83
				c6.158,1.049,9.99-5.865,9.99-5.865s6.123-7.793,12.248,5.566c6.123,13.36,11.969,10.856,23.381,4.732s11.691-1.393,15.586,2.505
				c1.516,1.516,3.076,3.743,5.299,5.183h10.314c2.15-0.994,4.621-2.566,7.49-4.904c15.029-12.248,18.092-4.546,20.875-1.206
				s7.57,9.29,23.658-5.01c10.439-9.278,12.34,5.752,15.959,6.865c1.051,0.323,3.467,0.819,6.172,0.751
				c1.736-2.363,2.828-5.717,2.828-9.447V154.509z"/>
		</g>
		<path fill="#C3C74F" d="M603.082,143.412c-0.08-0.271-0.15-0.515-0.223-0.759c-1.168,1.299-2.818,1.614-4.156,1.691
			c-49.5,2.875-143.916,0.75-143.748,0.584c-14.715,1.236-16.633-4.414-16.32-8.232c-4.844,1.537-11.055,5.259-3.947,13.675
			c10.576,12.526,17.141,1.286,17.141,1.286s6.795-9.636,12.92,3.725c6.123,13.359,11.969,10.855,23.381,4.731
			s11.691-1.392,15.586,2.505c3.898,3.896,8.072,12.525,23.104,0.279c15.029-12.248,18.092-4.547,20.875-1.207
			s7.57,9.291,23.658-5.01c10.439-9.279,12.34,5.752,15.959,6.865C590.891,164.649,610.32,167.813,603.082,143.412z"/>
		<path fill="#AFAF3E" d="M454.955,144.929c-0.168,0.166,94.248,2.291,143.748-0.584c1.338-0.077,2.988-0.393,4.156-1.691
			c-1.461-5.021-1.1-4.594-3.488-5.921l-156.334-1.021c0,0-2.039,0.233-4.402,0.984C438.322,140.515,440.24,146.165,454.955,144.929
			z"/>
		<path fill="#7A5C54" d="M587.311,166.713c-3.619-1.113-5.52-16.144-15.959-6.865c-16.088,14.3-20.875,8.35-23.658,5.01
			s-5.846-11.042-20.875,1.206c-2.869,2.338-5.34,3.91-7.49,4.904h68.074c2.354,0,4.488-1.336,6.08-3.504
			C590.777,167.532,588.361,167.036,587.311,166.713z"/>
		<g>
			<path fill="#BB4A26" d="M441.855,133.429c-0.313,0.729-0.488,1.532-0.488,2.376c0,3.33,2.699,6.031,6.031,6.031h148.076
				c3.332,0,6.031-2.701,6.031-6.031c0-0.844-0.176-1.646-0.488-2.376H441.855z"/>
			<path fill="#99381E" d="M595.475,129.774H447.398c-2.488,0-4.621,1.506-5.543,3.654h159.162
				C600.096,131.28,597.961,129.774,595.475,129.774z"/>
		</g>
		<g>
			<path fill="#F1B73B" d="M469.236,130.919c0,0,4.768,0.629,11.229,2.01h60.166c5.162-1.955,10.68-3.713,16.197-4.964
				C553.332,125.841,492.287,125.365,469.236,130.919z"/>
			<path fill="#F8C745" d="M513.357,147.44c-0.088-1.27,12.047-8.748,27.273-14.512h-60.166
				C491.598,135.308,507.771,139.923,513.357,147.44z"/>
			<path fill="#F8C745" d="M564.598,132.929c7.896,4.283,19.449,12.039,18.479,20.359c0.619-0.879,12.787-8.701,13.152-20.359
				H564.598z"/>
			<path fill="#F1B73B" d="M596.029,129.677c-0.23,0.125-38.514-0.207-38.514-0.207s3.07,1.283,7.082,3.459h31.631
				C596.262,131.874,596.207,130.792,596.029,129.677z"/>
			<path fill="#F8C745" d="M452.027,145.241c1.711-1.066,0.271-6.959,12.354-12.313h-18.395
				C445.633,135.953,446.227,140.854,452.027,145.241z"/>
			<path fill="#F1B73B" d="M446.725,130.026c0,0-0.531,1.129-0.738,2.902h18.395c1.313-0.582,2.777-1.156,4.432-1.719
				C469.219,130.376,446.725,130.026,446.725,130.026z"/>
		</g>
		<path fill="#E0942D" d="M602.805,129.774c0-0.497,0.111-0.971,0.035-1.462c0.076-0.893-0.035-1.811-0.035-2.713
			c0-27.671-36.014-50.102-80.439-50.102c-44.428,0-80.441,22.431-80.441,50.102c0,0.902-0.074,1.682,0,2.573
			c-0.074,0.49,0,1.104,0,1.602c0,0.467,0.037,0.93,0.105,1.393h160.672C602.768,130.704,602.805,130.241,602.805,129.774z"/>
		<path fill="#F5BA72" d="M498.787,81.095c0,0-49,10.5-51.334,45.333C447.287,126.595,453.455,99.929,498.787,81.095z"/>
		<g>
			<g>
				<g>
					<path fill="#E8AD67" d="M463.494,113.417l1.123,4.605c0.242,0.992-0.367,1.992-1.359,2.235
						c-0.99,0.242-1.992-0.367-2.236-1.359c-0.072-0.296-0.064-0.599,0-0.876l1.125-4.605c0.09-0.373,0.465-0.602,0.838-0.51
						C463.244,112.97,463.434,113.173,463.494,113.417z"/>
				</g>
				<g>
					<path fill="#E8AD67" d="M485.961,113.417l1.123,4.605c0.24,0.992-0.367,1.992-1.359,2.235
						c-0.992,0.242-1.994-0.367-2.236-1.359c-0.072-0.296-0.066-0.599,0-0.876l1.123-4.605c0.092-0.373,0.467-0.602,0.84-0.51
						C485.711,112.97,485.9,113.173,485.961,113.417z"/>
				</g>
				<g>
					<path fill="#E8AD67" d="M510.074,113.417l1.123,4.605c0.242,0.992-0.365,1.992-1.359,2.235
						c-0.992,0.242-1.994-0.367-2.234-1.359c-0.072-0.296-0.068-0.599,0-0.876l1.121-4.605c0.092-0.373,0.467-0.602,0.84-0.51
						C509.824,112.97,510.014,113.173,510.074,113.417z"/>
				</g>
				<g>
					<path fill="#E8AD67" d="M532.541,113.417l1.123,4.605c0.242,0.992-0.367,1.992-1.361,2.235
						c-0.99,0.242-1.992-0.367-2.234-1.359c-0.072-0.296-0.066-0.599,0-0.876l1.123-4.605c0.092-0.373,0.467-0.602,0.84-0.51
						C532.291,112.97,532.48,113.173,532.541,113.417z"/>
				</g>
				<g>
					<path fill="#E8AD67" d="M556.205,113.417l1.123,4.605c0.24,0.992-0.367,1.992-1.359,2.235
						c-0.992,0.242-1.994-0.367-2.236-1.359c-0.07-0.296-0.066-0.599,0-0.876l1.125-4.605c0.09-0.373,0.465-0.602,0.836-0.51
						C555.955,112.97,556.145,113.173,556.205,113.417z"/>
				</g>
				<g>
					<path fill="#E8AD67" d="M578.67,113.417l1.123,4.605c0.242,0.992-0.365,1.992-1.357,2.235
						c-0.994,0.242-1.994-0.367-2.236-1.359c-0.072-0.296-0.066-0.599,0-0.876l1.125-4.605c0.088-0.373,0.465-0.602,0.836-0.51
						C578.422,112.97,578.611,113.173,578.67,113.417z"/>
				</g>
				<g>
					<path fill="#E8AD67" d="M543.473,100.984l1.125,4.605c0.242,0.993-0.367,1.995-1.359,2.237
						c-0.994,0.242-1.994-0.367-2.236-1.359c-0.072-0.296-0.064-0.602,0-0.878l1.123-4.605c0.092-0.372,0.467-0.6,0.84-0.509
						C543.225,100.538,543.414,100.741,543.473,100.984z"/>
				</g>
				<g>
					<path fill="#E8AD67" d="M565.939,100.984l1.125,4.605c0.24,0.993-0.367,1.995-1.359,2.237
						c-0.994,0.242-1.994-0.367-2.236-1.359c-0.072-0.296-0.066-0.602,0-0.878l1.123-4.605c0.092-0.372,0.467-0.6,0.84-0.509
						C565.689,100.538,565.879,100.741,565.939,100.984z"/>
				</g>
				<g>
					<path fill="#E8AD67" d="M498.84,100.984l1.125,4.605c0.242,0.993-0.367,1.995-1.359,2.237s-1.992-0.367-2.234-1.359
						c-0.072-0.296-0.068-0.602,0-0.878l1.123-4.605c0.088-0.372,0.465-0.6,0.836-0.509
						C498.592,100.538,498.781,100.741,498.84,100.984z"/>
				</g>
				<g>
					<path fill="#E8AD67" d="M476.076,100.984l1.123,4.605c0.242,0.993-0.367,1.995-1.359,2.237s-1.994-0.367-2.236-1.359
						c-0.072-0.296-0.066-0.602,0-0.878l1.123-4.605c0.092-0.372,0.467-0.6,0.84-0.509
						C475.824,100.538,476.016,100.741,476.076,100.984z"/>
				</g>
				<g>
					<path fill="#E8AD67" d="M511.271,90.051l1.125,4.605c0.24,0.993-0.369,1.994-1.359,2.235c-0.992,0.242-1.994-0.365-2.236-1.357
						c-0.072-0.295-0.066-0.601,0-0.877l1.123-4.605c0.092-0.372,0.467-0.6,0.84-0.509
						C511.021,89.605,511.213,89.808,511.271,90.051z"/>
				</g>
				<g>
					<path fill="#E8AD67" d="M530.293,90.051l1.123,4.605c0.244,0.993-0.365,1.994-1.357,2.235
						c-0.994,0.242-1.994-0.365-2.236-1.357c-0.072-0.295-0.066-0.601,0-0.877l1.123-4.605c0.09-0.372,0.467-0.6,0.838-0.509
						C530.043,89.605,530.234,89.808,530.293,90.051z"/>
				</g>
				<g>
					<path fill="#E8AD67" d="M551.861,90.051l1.123,4.605c0.242,0.993-0.367,1.994-1.359,2.235
						c-0.992,0.242-1.992-0.365-2.236-1.357c-0.072-0.295-0.064-0.601,0-0.877l1.125-4.605c0.09-0.372,0.465-0.6,0.838-0.509
						C551.611,89.605,551.801,89.808,551.861,90.051z"/>
				</g>
				<g>
					<path fill="#E8AD67" d="M488.506,90.051l1.123,4.605c0.242,0.993-0.365,1.994-1.357,2.235
						c-0.994,0.242-1.994-0.365-2.236-1.357c-0.072-0.295-0.066-0.601,0-0.877l1.123-4.605c0.09-0.372,0.467-0.6,0.838-0.509
						C488.256,89.605,488.447,89.808,488.506,90.051z"/>
				</g>
				<g>
					<path fill="#E8AD67" d="M521.307,100.984l1.125,4.605c0.24,0.993-0.369,1.995-1.359,2.237
						c-0.994,0.242-1.994-0.367-2.236-1.359c-0.072-0.296-0.066-0.602,0-0.878l1.123-4.605c0.09-0.372,0.467-0.6,0.838-0.509
						C521.057,100.538,521.248,100.741,521.307,100.984z"/>
				</g>
			</g>
		</g>
	</g>
</g>
</svg>
